# xmcd
#
# Track frame offsets: 
#        182
#        14020
#        32870
#        50630
#        68520
#        82372
#        93750
#        110332
#        125290
#        135035
#        145787
#        163935
#        176405
#        185992
#        214622
#        227747
#        235745
#        248980
#        263957
#        274370
#        289480
#
# Disc length: 3952 seconds
#
# Revision: 5
# Processed by: cddbd v1.5.2PL0 Copyright (c) Steve Scherf et al.
# Submitted via: ExactAudioCopy v0.99pb4
#
DISCID=3a0f6e15
DTITLE=The Flying Burrito Brothers - Farther Along: The Best Of The Fl
DTITLE=ying Burrito Brothers
DYEAR=1988
DGENRE=Country
TTITLE0=Christine's Tune (Devil In Disguise)
TTITLE1=Sin City
TTITLE2=Do Right Woman
TTITLE3=Dark End Of The Street
TTITLE4=Wheels
TTITLE5=Juanita
TTITLE6=Hot Burrito #1
TTITLE7=Hot Burrito #2
TTITLE8=Do You Know How It Feels
TTITLE9=Break My Mind
TTITLE10=Farther Along
TTITLE11=Cody Cody
TTITLE12=God's Own Singer
TTITLE13=Wild Horses
TTITLE14=Dim Lights
TTITLE15=Just Because
TTITLE16=Six Days On The Road
TTITLE17=To Love Somebody
TTITLE18=Close Up The Honkytonks
TTITLE19=Sing Me Back Home
TTITLE20=I Shall Be Released
EXTD=YEAR: 1988 ID3G:   2
EXTT0=
EXTT1=
EXTT2=
EXTT3=
EXTT4=
EXTT5=
EXTT6=
EXTT7=
EXTT8=
EXTT9=
EXTT10=
EXTT11=
EXTT12=
EXTT13=
EXTT14=
EXTT15=
EXTT16=
EXTT17=
EXTT18=
EXTT19=
EXTT20=
PLAYORDER=
